<svg xmlns="http://www.w3.org/2000/svg" viewBox="0 0 32 32" width="32" height="32">
  <defs>
    <linearGradient id="leafGradient" x1="0%" y1="0%" x2="100%" y2="100%">
      <stop offset="0%" style="stop-color:#2d5016;stop-opacity:1" />
      <stop offset="100%" style="stop-color:#4a7c59;stop-opacity:1" />
    </linearGradient>
  </defs>
  <path d="M16 2 L20 8 L26 6 L24 12 L30 16 L24 20 L26 26 L20 24 L16 30 L12 24 L6 26 L8 20 L2 16 L8 12 L6 6 L12 8 Z" 
        fill="url(#leafGradient)" 
        stroke="#1a3d0f" 
        stroke-width="0.5"/>
  <path d="M16 6 L18 10 L22 9 L21 13 L25 16 L21 19 L22 23 L18 22 L16 26 L14 22 L10 23 L11 19 L7 16 L11 13 L10 9 Z" 
        fill="#4a7c59" 
        opacity="0.7"/>
</svg>
